mtllib unnamed.mtl
# vertices
v -5 -4 -5
v -5 -4 5
v -5 4 5
v -5 4 -5
v 5 4 5
v 5 -4 5
v 5 -4 -5
v 5 4 -5
v 5 -4 -4
v 5 -4 4
v 5 4 4
v 5 4 -4
v 6 4 4
v 6 -4 4
v 6 -4 -4
v 6 4 -4
v 5 4 -4
v 5 4 -3
v 5 8 -3
v 5 8 -4
v 6 8 -3
v 6 4 -3
v 6 4 -4
v 6 8 -4
v 5 4 3
v 5 4 4
v 5 8 4
v 5 8 3
v 6 8 4
v 6 4 4
v 6 4 3
v 6 8 3
v 5 8 -4
v 5 8 4
v 5 9 4
v 5 9 -4
v 6 9 4
v 6 8 4
v 6 8 -4
v 6 9 -4

# texture coordinates
vt 5 -4
vt -5 -4
vt -5 4
vt 5 4
vt 5 -5
vt -5 -5
vt -5 5
vt 5 5
vt 4 -4
vt -4 -4
vt -4 4
vt 4 4
vt 6 4
vt 6 -4
vt 3 4
vt 3 8
vt 4 8
vt 6 8
vt 5 8
vt 6 3
vt 5 3
vt -3 4
vt -4 8
vt -3 8
vt 5 -3
vt 6 -3
vt -4 9
vt 4 9
vt 6 9
vt 5 9

# normals
vn -1 0 -0
vn 0 0 1
vn 0 -1 -0
vn 0 1 -0
vn 0 0 -1
vn 1 0 -0

o entity0_brush0
usemtl __TB_empty
f  1/1/1  2/2/1  3/3/1  4/4/1
usemtl __TB_empty
f  5/4/2  3/3/2  2/2/2  6/1/2
usemtl __TB_empty
f  6/5/3  2/6/3  1/7/3  7/8/3
usemtl __TB_empty
f  8/8/4  4/7/4  3/6/4  5/5/4
usemtl __TB_empty
f  7/1/5  1/2/5  4/3/5  8/4/5
usemtl __TB_empty
f  8/4/6  5/3/6  6/2/6  7/1/6

o entity0_brush1
usemtl __TB_empty
f  9/9/1  10/10/1  11/11/1  12/12/1
usemtl __TB_empty
f  13/13/2  11/4/2  10/1/2  14/14/2
usemtl __TB_empty
f  14/14/3  10/1/3  9/4/3  15/13/3
usemtl __TB_empty
f  16/13/4  12/4/4  11/1/4  13/14/4
usemtl __TB_empty
f  15/14/5  9/1/5  12/4/5  16/13/5
usemtl __TB_empty
f  16/12/6  13/11/6  14/10/6  15/9/6

o entity0_brush2
usemtl __TB_empty
f  17/12/1  18/15/1  19/16/1  20/17/1
usemtl __TB_empty
f  21/18/2  19/19/2  18/4/2  22/13/2
usemtl __TB_empty
f  22/20/3  18/21/3  17/4/3  23/13/3
usemtl __TB_empty
f  24/13/4  20/4/4  19/21/4  21/20/4
usemtl __TB_empty
f  23/13/5  17/4/5  20/19/5  24/18/5
usemtl __TB_empty
f  24/17/6  21/16/6  22/15/6  23/12/6

o entity0_brush3
usemtl __TB_empty
f  25/22/1  26/11/1  27/23/1  28/24/1
usemtl __TB_empty
f  29/18/2  27/19/2  26/4/2  30/13/2
usemtl __TB_empty
f  30/14/3  26/1/3  25/25/3  31/26/3
usemtl __TB_empty
f  32/26/4  28/25/4  27/1/4  29/14/4
usemtl __TB_empty
f  31/13/5  25/4/5  28/19/5  32/18/5
usemtl __TB_empty
f  32/24/6  29/23/6  30/11/6  31/22/6

o entity0_brush4
usemtl __TB_empty
f  33/17/1  34/23/1  35/27/1  36/28/1
usemtl __TB_empty
f  37/29/2  35/30/2  34/19/2  38/18/2
usemtl __TB_empty
f  38/14/3  34/1/3  33/4/3  39/13/3
usemtl __TB_empty
f  40/13/4  36/4/4  35/1/4  37/14/4
usemtl __TB_empty
f  39/18/5  33/19/5  36/30/5  40/29/5
usemtl __TB_empty
f  40/28/6  37/27/6  38/23/6  39/17/6

