mtllib bowl.mtl
# vertices
v -8 -2 -8
v -8 -2 8
v -8 -1 8
v -8 -1 -8
v 8 -1 8
v 8 -2 8
v 8 -2 -8
v 8 -1 -8
v -8 -1 -8
v -8 -1 -7
v -8 1 -7
v -8 1 -8
v 8 1 -7
v 8 -1 -7
v 8 -1 -8
v 8 1 -8
v -8 -1 7
v -8 -1 8
v -8 1 8
v -8 1 7
v 8 1 8
v 8 -1 8
v 8 -1 7
v 8 1 7
v -8 -1 -8
v -8 -1 8
v -8 1 8
v -8 1 -8
v -7 1 8
v -7 -1 8
v -7 -1 -8
v -7 1 -8
v 7 -1 -8
v 7 -1 8
v 7 1 8
v 7 1 -8
v 8 1 8
v 8 -1 8
v 8 -1 -8
v 8 1 -8
v -7 1 -7
v -7 -1 -7
v -7 -1 7
v -7 1 7
v -6 -1 7
v -6 -1 -7
v 7 1 -7
v 6 -1 -7
v 6 -1 7
v 7 1 7
v 7 -1 7
v 7 -1 -7
v -7 -1 -7
v -7 -1 -6
v -7 1 -7
v 7 1 -7
v 7 -1 -6
v 7 -1 -7
v -7 -1 6
v -7 -1 7
v -7 1 7
v 7 1 7
v 7 -1 7
v 7 -1 6

# texture coordinates
vt 0.0031738281 0.0029296875
vt -0.0007324219 0.0029296875
vt -0.0007324219 0.0031738281
vt 0.0031738281 0.0031738281
vt 0 0.0031738281
vt -0.00390625 0.0031738281
vt -0.00390625 0.0029296875
vt 0 0.0029296875
vt 0 -0.0007324219
vt -0.00390625 -0.0007324219
vt 0.0021972656 -0.00048828125
vt 0.001953125 -0.00048828125
vt 0.001953125 -0
vt 0.0021972656 -0
vt -0.001953125 -0
vt -0.001953125 -0.00048828125
vt 0.001953125 0.001953125
vt -0.001953125 0.001953125
vt -0.001953125 0.0021972656
vt 0.001953125 0.0021972656
vt 0.0041503906 -0.00048828125
vt 0.00024414062 -0.00048828125
vt 0.00024414062 -0
vt 0.0041503906 -0
vt -0.0017089844 -0
vt -0.0017089844 -0.00048828125
vt -0.0017089844 0.00024414062
vt -0.001953125 0.00024414062
vt -0.001953125 0.0041503906
vt -0.0017089844 0.0041503906
vt 0.0017089844 0.00024414062
vt 0.0017089844 -0.00024414062
vt -0.0017089844 -0.00024414062
vt -0.0014648438 -0.00024414062
vt -0.0014648438 -0.0017089844
vt -0.0017089844 -0.0017089844
vt -0.0017089844 0.0017089844
vt -0.0014648438 0.0017089844
vt 0.0012207031 -0.00024414062
vt -0.0021972656 -0.00024414062
vt -0.0021972656 -0.0007324219
vt 0.0012207031 -0.0007324219
vt -0.0014648438 0.00024414062

# normals
vn -1 0 0
vn 0 0 1
vn 0 -1 -0
vn -0 1 -0
vn 0 -0 -1
vn 1 0 0
vn 0.8944271909999159 0.4472135954999579 -0
vn -0.8944271909999159 0.4472135954999579 -0
vn 0 0.4472135954999579 0.8944271909999159
vn 0 0.4472135954999579 -0.8944271909999159

o entity0_brush0
usemtl orm
f  1/1/1  2/2/1  3/3/1  4/4/1
usemtl orm
f  5/5/2  3/6/2  2/7/2  6/8/2
usemtl orm
f  6/9/3  2/10/3  1/6/3  7/5/3
usemtl orm
f  8/5/4  4/6/4  3/10/4  5/9/4
usemtl orm
f  7/8/5  1/7/5  4/6/5  8/5/5
usemtl orm
f  8/4/6  5/3/6  6/2/6  7/1/6

o entity0_brush1
usemtl albedo
f  9/11/1  10/12/1  11/13/1  12/14/1
usemtl albedo
f  13/13/2  11/15/2  10/16/2  14/12/2
usemtl albedo
f  14/17/3  10/18/3  9/19/3  15/20/3
usemtl albedo
f  16/20/4  12/19/4  11/18/4  13/17/4
usemtl albedo
f  15/12/5  9/16/5  12/15/5  16/13/5
usemtl albedo
f  16/14/6  13/13/6  14/12/6  15/11/6

o entity0_brush2
usemtl albedo
f  17/11/1  18/12/1  19/13/1  20/14/1
usemtl albedo
f  21/13/2  19/15/2  18/16/2  22/12/2
usemtl albedo
f  22/17/3  18/18/3  17/19/3  23/20/3
usemtl albedo
f  24/20/4  20/19/4  19/18/4  21/17/4
usemtl albedo
f  23/12/5  17/16/5  20/15/5  24/13/5
usemtl albedo
f  24/14/6  21/13/6  22/12/6  23/11/6

o entity0_brush3
usemtl albedo
f  25/21/1  26/22/1  27/23/1  28/24/1
usemtl albedo
f  29/25/2  27/15/2  26/16/2  30/26/2
usemtl albedo
f  30/27/3  26/28/3  25/29/3  31/30/3
usemtl albedo
f  32/30/4  28/29/4  27/28/4  29/27/4
usemtl albedo
f  31/26/5  25/16/5  28/15/5  32/25/5
usemtl albedo
f  32/24/6  29/23/6  30/22/6  31/21/6

o entity0_brush4
usemtl albedo
f  33/21/1  34/22/1  35/23/1  36/24/1
usemtl albedo
f  37/25/2  35/15/2  34/16/2  38/26/2
usemtl albedo
f  38/27/3  34/28/3  33/29/3  39/30/3
usemtl albedo
f  40/30/4  36/29/4  35/28/4  37/27/4
usemtl albedo
f  39/26/5  33/16/5  36/15/5  40/25/5
usemtl albedo
f  40/24/6  37/23/6  38/22/6  39/21/6

o entity0_brush5
usemtl albedo
f  41/31/1  42/32/1  43/33/1  44/27/1
usemtl albedo
f  44/27/2  43/33/2  45/34/2
usemtl albedo
f  45/35/3  43/36/3  42/37/3  46/38/3
usemtl albedo
f  46/34/5  42/33/5  41/27/5
usemtl albedo
f  41/39/7  44/40/7  45/41/7  46/42/7

o entity0_brush6
usemtl albedo
f  47/31/8  48/32/8  49/33/8  50/27/8
usemtl albedo
f  50/43/2  49/33/2  51/34/2
usemtl albedo
f  51/35/3  49/36/3  48/37/3  52/38/3
usemtl albedo
f  52/34/5  48/33/5  47/43/5
usemtl albedo
f  47/39/6  50/40/6  51/41/6  52/42/6

o entity0_brush7
usemtl albedo
f  53/33/1  54/34/1  55/27/1
usemtl albedo
f  56/39/9  55/40/9  54/41/9  57/42/9
usemtl albedo
f  57/38/3  54/35/3  53/36/3  58/37/3
usemtl albedo
f  58/32/5  53/33/5  55/27/5  56/31/5
usemtl albedo
f  57/34/6  58/33/6  56/27/6

o entity0_brush8
usemtl albedo
f  59/34/1  60/33/1  61/27/1
usemtl albedo
f  62/27/2  61/31/2  60/32/2  63/33/2
usemtl albedo
f  63/36/3  60/37/3  59/38/3  64/35/3
usemtl albedo
f  64/41/10  59/42/10  61/39/10  62/40/10
usemtl albedo
f  63/33/6  64/34/6  62/27/6

