mtllib unnamed.mtl
# vertices
v -6 -4 -6
v -6 -4 6
v -6 -1 6
v -6 -1 -6
v 6 -1 6
v 6 -4 6
v 6 -4 -6
v 6 -1 -6
v -6 -1 -6
v -6 -1 -3
v -6 2 -5
v -6 2 -6
v 6 2 -5
v 6 -1 -3
v 6 -1 -6
v 6 2 -6
v -6 -1 3
v -6 -1 6
v -6 2 6
v -6 2 5
v 6 2 6
v 6 -1 6
v 6 -1 3
v 6 2 5

# texture coordinates
vt 0.21875 -0.21875
vt -0.15625 -0.21875
vt -0.15625 -0.125
vt 0.21875 -0.125
vt 0.09375 -0.125
vt -0.28125 -0.125
vt -0.28125 -0.21875
vt 0.09375 -0.21875
vt 0.09375 -0.15625
vt -0.28125 -0.15625
vt -0.28125 0.21875
vt 0.09375 0.21875
vt 0.1875 -0.125
vt 0.15625 -0.03125
vt 0.1875 -0.03125
vt -0.1875 -0.03125
vt -0.1875 -0.125
vt 0.1875 0.09375
vt -0.1875 0.09375
vt -0.1875 0.1875
vt 0.1875 0.1875
vt -0.1875 0.15625
vt 0.1875 0.15625
vt 0.25 -0.125
vt 0.15625 -0.125
vt -0.1875 0.25
vt 0.1875 0.25

# normals
vn -1 0 -0
vn 0 0 1
vn 0 -1 -0
vn 0 1 -0
vn 0 0 -1
vn 1 0 -0
vn 0 0.554700196225229 0.8320502943378436
vn 0 0.554700196225229 -0.8320502943378436

o entity0_brush0
usemtl __TB_empty
f  1/1/1  2/2/1  3/3/1  4/4/1
usemtl __TB_empty
f  5/5/2  3/6/2  2/7/2  6/8/2
usemtl __TB_empty
f  6/9/3  2/10/3  1/11/3  7/12/3
usemtl __TB_empty
f  8/12/4  4/11/4  3/10/4  5/9/4
usemtl __TB_empty
f  7/8/5  1/7/5  4/6/5  8/5/5
usemtl __TB_empty
f  8/4/6  5/3/6  6/2/6  7/1/6

o entity0_brush1
usemtl __TB_empty
f  9/13/1  10/5/1  11/14/1  12/15/1
usemtl __TB_empty
f  13/15/7  11/16/7  10/17/7  14/13/7
usemtl __TB_empty
f  14/18/3  10/19/3  9/20/3  15/21/3
usemtl __TB_empty
f  16/21/4  12/20/4  11/22/4  13/23/4
usemtl __TB_empty
f  15/13/5  9/17/5  12/16/5  16/15/5
usemtl __TB_empty
f  16/15/6  13/14/6  14/5/6  15/13/6

o entity0_brush2
usemtl __TB_empty
f  17/24/1  18/25/1  19/14/1  20/15/1
usemtl __TB_empty
f  21/15/2  19/16/2  18/17/2  22/13/2
usemtl __TB_empty
f  22/23/3  18/22/3  17/26/3  23/27/3
usemtl __TB_empty
f  24/21/4  20/20/4  19/22/4  21/23/4
usemtl __TB_empty
f  23/13/8  17/17/8  20/16/8  24/15/8
usemtl __TB_empty
f  24/15/6  21/14/6  22/25/6  23/24/6

